<svg width="100" height="100" viewBox="0 0 100 100" fill="none" xmlns="http://www.w3.org/2000/svg">
<path d="M77.55 21.35C65.8 28.35 45.9 48.35 36.65 62.6C35.45 64.5 34.4 66 34.3 66C34.2 66 33.15 64.45 31.9 62.6C26.45 54.45 21.4 49.8 18.25 50.1C15.75 50.35 16.1 51.85 19.7 57.2C23.3 62.6 27.8 71.1 29.5 75.9C31.25 80.7 33.85 82.2 36.7 79.95C37.4 79.4 39.55 75.85 41.55 71.95C45.55 64.05 52.3 53.7 58.25 46.25C63.45 39.75 73.75 29.2 79.4 24.55C82.2 22.25 83.8 20.6 83.65 20.2C83.2 19 80.8 19.45 77.55 21.35Z" fill="white"/>
</svg>
